<svg width="25" height="47" viewBox="0 0 25 47" fill="none" xmlns="http://www.w3.org/2000/svg">
<path d="M24.1691 17.5195L16.8688 13.9012C16.1152 14.9436 14.4467 15.671 12.5007 15.671C10.5547 15.671 8.88615 14.9436 8.1325 13.9012L0.832215 17.5195C0.536004 17.6695 0.41602 18.0294 0.562251 18.3257L2.70697 22.6188C2.85695 22.9151 3.2169 23.035 3.51311 22.8888L5.63533 21.8502C6.03278 21.6552 6.49771 21.9439 6.49771 22.3901V31.8989C6.49771 32.5625 7.03389 33.0987 7.69756 33.0987H17.2963C17.9599 33.0987 18.4961 32.5625 18.4961 31.8989V22.3864C18.4961 21.9439 18.9611 21.6515 19.3585 21.8464L21.4807 22.8851C21.7769 23.035 22.1369 22.9151 22.2869 22.6151L24.4353 18.3257C24.5853 18.0294 24.4653 17.6657 24.1691 17.5195Z" fill="#F4F4F4"/>
</svg>
