<svg width="25" height="23" viewBox="0 0 25 23" fill="none" xmlns="http://www.w3.org/2000/svg">
<path d="M23.8333 12.8334H20.5V16.8334L19.1667 15.9459L17.8333 16.8334V12.8334H14.5C14.1333 12.8334 13.8333 13.1334 13.8333 13.5V21.5C13.8333 21.8667 14.1333 22.1667 14.5 22.1667H23.8333C24.2 22.1667 24.5 21.8667 24.5 21.5V13.5C24.5 13.1334 24.2 12.8334 23.8333 12.8334ZM7.83333 10.1667H17.1667C17.5333 10.1667 17.8333 9.86671 17.8333 9.50004V1.50004C17.8333 1.13337 17.5333 0.833374 17.1667 0.833374H13.8333V4.83337L12.5 3.94587L11.1667 4.83337V0.833374H7.83333C7.46667 0.833374 7.16667 1.13337 7.16667 1.50004V9.50004C7.16667 9.86671 7.46667 10.1667 7.83333 10.1667ZM10.5 12.8334H7.16667V16.8334L5.83333 15.9459L4.5 16.8334V12.8334H1.16667C0.8 12.8334 0.5 13.1334 0.5 13.5V21.5C0.5 21.8667 0.8 22.1667 1.16667 22.1667H10.5C10.8667 22.1667 11.1667 21.8667 11.1667 21.5V13.5C11.1667 13.1334 10.8667 12.8334 10.5 12.8334Z" fill="white"/>
</svg>
