<svg width="27" height="27" viewBox="0 0 27 27" fill="none" xmlns="http://www.w3.org/2000/svg">
<path d="M13.2749 12.2625C10.7211 11.5987 9.89986 10.9125 9.89986 9.84375C9.89986 8.6175 11.0361 7.7625 12.9374 7.7625C14.9399 7.7625 15.6824 8.71875 15.7499 10.125H18.2361C18.1574 8.19 16.9761 6.4125 14.6249 5.83875V3.375H11.2499V5.805C9.06736 6.2775 7.31236 7.695 7.31236 9.86625C7.31236 12.465 9.46111 13.7587 12.5999 14.5125C15.4124 15.1875 15.9749 16.1775 15.9749 17.2238C15.9749 18 15.4236 19.2375 12.9374 19.2375C10.6199 19.2375 9.70861 18.2025 9.58486 16.875H7.10986C7.24486 19.3388 9.08986 20.7225 11.2499 21.1837V23.625H14.6249V21.2063C16.8186 20.79 18.5624 19.5188 18.5624 17.2125C18.5624 14.0175 15.8286 12.9262 13.2749 12.2625Z" fill="url(#paint0_linear_729_420)"/>
<defs>
<linearGradient id="paint0_linear_729_420" x1="12.8361" y1="3.375" x2="12.8361" y2="23.625" gradientUnits="userSpaceOnUse">
<stop stop-color="#7F39FB"/>
<stop offset="1" stop-color="#AD7EFF"/>
</linearGradient>
</defs>
</svg>
